<?xml version="1.0" encoding="iso-8859-1"?>
<!-- Generator: Adobe Illustrator 19.0.0, SVG Export Plug-In . SVG Version: 6.00 Build 0)  -->
<svg version="1.1" id="Layer_1" xmlns="http://www.w3.org/2000/svg" xmlns:xlink="http://www.w3.org/1999/xlink" x="0px" y="0px"
	 viewBox="0 0 512 512" style="enable-background:new 0 0 512 512;" xml:space="preserve">
	<g>
		<path d="M256,64c-5.896,0-10.667,4.771-10.667,10.667v163.277c-6.259,3.724-10.667,10.262-10.667,18.056
			c0,11.76,9.563,21.333,21.333,21.333c1.842,0,3.491-0.611,5.198-1.052l83.26,83.26c2.083,2.083,4.813,3.125,7.542,3.125
			c2.729,0,5.458-1.042,7.542-3.125c4.167-4.167,4.167-10.917,0-15.083l-83.26-83.26c0.441-1.707,1.052-3.355,1.052-5.198
			c0-7.794-4.408-14.332-10.667-18.056V74.667C266.667,68.771,261.896,64,256,64z"/>
		<path d="M501.333,245.333c-5.896,0-10.667,4.771-10.667,10.667c0,129.396-105.271,234.667-234.667,234.667
			S21.333,385.396,21.333,256S126.604,21.333,256,21.333c53.917,0,104.792,18.292,145.458,50.479l-25.396,41.438
			c-1.75,2.865-2.042,6.396-0.813,9.51c1.25,3.125,3.875,5.479,7.125,6.354l88.333,23.927c4.042,1.104,8.438-0.292,11.104-3.604
			c2.646-3.302,3.104-7.865,1.146-11.615C438.646,52.813,351.688,0,256,0C114.833,0,0,114.844,0,256s114.833,256,256,256
			s256-114.844,256-256C512,250.104,507.229,245.333,501.333,245.333z M417.771,86.021c12.354,11.813,23.521,25.052,33.208,39.573
			l-49.271-13.344L417.771,86.021z"/>
	</g>
</svg>
