<svg xmlns:dc="http://purl.org/dc/elements/1.1/"
    xmlns:cc="http://creativecommons.org/ns#"
    xmlns:rdf="http://www.w3.org/1999/02/22-rdf-syntax-ns#"
    xmlns:svg="http://www.w3.org/2000/svg"
    xmlns="http://www.w3.org/2000/svg"
    xmlns:sodipodi="http://sodipodi.sourceforge.net/DTD/sodipodi-0.dtd"
    xmlns:inkscape="http://www.inkscape.org/namespaces/inkscape" version="1.1" x="0px" y="0px" viewBox="0 0 100 125">
    <g transform="translate(0,-952.36218)">
        <path class="metadata__svg" style="text-indent:0;text-transform:none;direction:ltr;block-progression:tb;baseline-shift:baseline;color:#000000;enable-background:accumulate;" d="m 74.223536,957.36215 c -6.5314,0 -12.38727,3.035 -16.19514,7.7621 a 2.1305483,2.1305483 0 1 0 3.29739,2.6554 c 3.03065,-3.7622 7.67941,-6.157 12.89775,-6.157 9.15088,0 16.516085,7.3653 16.516115,16.51596 4e-5,9.1509 -7.365105,16.5452 -16.516115,16.5453 -4.85161,-10e-5 -9.2024,-2.0819 -12.2266,-5.3983 a 2.1305483,2.1305483 0 1 0 -3.15149,2.8596 c 1.48232,1.6257 3.23035,2.9919 5.16494,4.0852 -2.22102,1.6406 -5.30525,1.4648 -7.32429,-0.5543 -2.22788,-2.2277 -2.2279,-5.7676 0,-7.9955 2.22793,-2.228 5.7675,-2.228 7.99544,0 0.58279,0.5828 1.00884,1.2396 1.28394,1.9552 a 2.1305483,2.1305483 0 1 0 3.96853,-1.5174 c -0.48376,-1.2583 -1.23815,-2.4639 -2.24689,-3.4725 -1.92807,-1.9282 -4.46008,-2.8889 -7.0033,-2.8889 -2.54321,0 -5.07523,0.9607 -7.0033,2.8889 -3.85611,3.8561 -3.85627,10.1797 0,14.0357 3.8561,3.85639 10.15047,3.85609 14.0066,0 0.19746,-0.1974 0.37631,-0.4015 0.55443,-0.6127 1.89837,0.5716 3.90573,0.8754 5.98199,0.8754 1.1957,0 2.36057,-0.096 3.50165,-0.2918 l 0,5.98189 -37.58439,37.5845 -30.02665,-29.9975 37.58438,-37.58449 19.2299,0 10.82594,10.8551 0,3.9394 a 2.1305483,2.1305483 0 1 0 4.26034,0 l 0,-4.8439 a 2.1305483,2.1305483 0 0 0 -0.64197,-1.4882 l -12.08069,-12.10986 a 2.1305483,2.1305483 0 0 0 -1.51739,-0.6127 l -20.95154,0 a 2.1305483,2.1305483 0 0 0 -0.20426,0 2.1305483,2.1305483 0 0 0 -1.31312,0.6127 L 5.620366,1010.704 a 2.1305483,2.1305483 0 0 0 0,3.0057 l 33.03223,33.0322 a 2.1305483,2.1305483 0 0 0 3.00559,0 l 39.71455,-39.6854 a 2.1305483,2.1305483 0 0 0 0.61279,-1.5174 l 0,-8.11219 c 7.617525,-3.0919 13.014505,-10.58 13.014465,-19.2883 -4e-5,-11.45346 -9.32294,-20.77646 -20.776455,-20.77646 z m -44.73359,41.75716 a 2.1305483,2.1305483 0 0 0 -1.89673,2.13019 l 0,12.1391 a 2.1305483,2.1305483 0 1 0 4.26034,0 l 0,-10.0089 10.00889,0 a 2.1305483,2.1305483 0 1 0 0,-4.26039 l -12.13906,0 a 2.1305483,2.1305483 0 0 0 -0.23344,0 z m 21.59351,9.19199 a 2.1305483,2.1305483 0 0 0 -0.23344,0.029 2.1305483,2.1305483 0 0 0 -1.86755,2.1593 l 0,10.0089 -10.00888,0 a 2.1305483,2.1305483 0 1 0 0,4.2604 l 12.13905,0 a 2.1305483,2.1305483 0 0 0 2.13017,-2.1302 l 0,-12.1391 a 2.1305483,2.1305483 0 0 0 -2.15935,-2.1883 z" fill-opacity="1" stroke="none" marker="none" visibility="visible" display="inline" overflow="visible" />
    </g>
</svg>